<?xml version="1.0" encoding="utf-8"?>
<!-- Generator: Adobe Illustrator 15.1.0, SVG Export Plug-In . SVG Version: 6.00 Build 0)  -->
<!DOCTYPE svg PUBLIC "-//W3C//DTD SVG 1.1//EN" "http://www.w3.org/Graphics/SVG/1.1/DTD/svg11.dtd">
<svg version="1.1" id="Layer_1" xmlns="http://www.w3.org/2000/svg" xmlns:xlink="http://www.w3.org/1999/xlink" x="0px" y="0px"
	 width="250.875px" height="35.5px" viewBox="0 0 250.875 35.5" enable-background="new 0 0 250.875 35.5" xml:space="preserve">
<path fill="#216E80" d="M5.206,23.094v6.384h3.09c0.295-1.915,1.881-3.084,3.941-3.084c2.06,0,3.806,1.493,3.941,3.084h10.903
	c0.317-1.553,1.822-3.223,3.873-3.223s3.88,1.67,4.197,3.223h2.611v-6.384H5.206z"/>
<path fill="none" stroke="#216E80" stroke-width="1.414" stroke-miterlimit="10" d="M5.206,23.094v6.384h3.09
	c0.295-1.915,1.881-3.084,3.941-3.084c2.06,0,3.806,1.493,3.941,3.084h10.903c0.317-1.553,1.822-3.223,3.873-3.223
	s3.88,1.67,4.197,3.223h2.611v-6.384H5.206z"/>
<path fill="#216E80" d="M16.341,30.376c0,2.26-1.832,4.092-4.091,4.092c-2.26,0-4.092-1.832-4.092-4.092s1.832-4.091,4.092-4.091
	C14.509,26.285,16.341,28.116,16.341,30.376"/>
<circle fill="none" stroke="#216E80" stroke-width="1.597" stroke-miterlimit="10" cx="12.249" cy="30.376" r="4.092"/>
<path fill-rule="evenodd" clip-rule="evenodd" fill="#216E80" d="M10.552,30.271c0.043-0.923,0.852-1.646,1.78-1.598
	c0.924,0.05,1.654,0.85,1.616,1.775c-0.036,0.917-0.838,1.661-1.76,1.631C11.227,32.046,10.507,31.251,10.552,30.271"/>
<path fill="none" stroke="#216E80" stroke-width="0.897" stroke-miterlimit="10" d="M10.552,30.271
	c0.043-0.923,0.852-1.646,1.78-1.598c0.924,0.05,1.654,0.85,1.616,1.775c-0.036,0.917-0.838,1.661-1.76,1.631
	C11.227,32.046,10.507,31.251,10.552,30.271z"/>
<path fill="#216E80" d="M35.108,30.419c0,2.26-1.832,4.092-4.091,4.092c-2.261,0-4.092-1.832-4.092-4.092s1.831-4.09,4.092-4.09
	C33.276,26.329,35.108,28.159,35.108,30.419"/>
<circle fill="none" stroke="#216E80" stroke-width="1.597" stroke-miterlimit="10" cx="31.016" cy="30.419" r="4.092"/>
<path fill-rule="evenodd" clip-rule="evenodd" fill="#216E80" d="M29.319,30.314c0.043-0.923,0.852-1.646,1.779-1.598
	c0.925,0.051,1.655,0.85,1.617,1.776c-0.036,0.916-0.838,1.66-1.759,1.632C29.994,32.089,29.275,31.294,29.319,30.314"/>
<path fill="none" stroke="#216E80" stroke-width="0.897" stroke-miterlimit="10" d="M29.319,30.314
	c0.043-0.923,0.852-1.646,1.779-1.598c0.925,0.051,1.655,0.85,1.617,1.776c-0.036,0.916-0.838,1.66-1.759,1.632
	C29.994,32.089,29.275,31.294,29.319,30.314z"/>
<path fill="#216E80" d="M4.247,18.4L1.341,4.635c0,0-1.103-2.797,2.158-0.934c0,0,6.095,2.506,10.807-1.272c0,0,9.519,5.664,17.88,0
	c0,0,5.569,4.026,9.873,2.206c0,0,2.232-1.281,1.368,1.394L39.19,18.534L4.247,18.4z"/>
<path fill="none" stroke="#216E80" stroke-width="1.414" stroke-miterlimit="10" d="M4.247,18.4L1.341,4.635
	c0,0-1.103-2.797,2.158-0.934c0,0,6.095,2.506,10.807-1.272c0,0,9.519,5.664,17.88,0c0,0,5.569,4.026,9.873,2.206
	c0,0,2.232-1.281,1.368,1.394L39.19,18.534L4.247,18.4z"/>
<path fill="#216E80" d="M9.313,4.448v5.164c0,0.391,0.315,0.705,0.705,0.705s0.706-0.314,0.706-0.705V4.681
	C10.22,4.651,9.749,4.572,9.313,4.448"/>
<path fill="none" stroke="#216E80" stroke-width="0.897" stroke-miterlimit="10" d="M9.313,4.448v5.164
	c0,0.391,0.315,0.705,0.705,0.705s0.706-0.314,0.706-0.705V4.681C10.22,4.651,9.749,4.572,9.313,4.448z"/>
<path fill="#216E80" d="M19.771,4.931V8.34c0,0.391,0.315,0.706,0.705,0.706s0.706-0.315,0.706-0.706V5.378
	C20.68,5.271,20.212,5.117,19.771,4.931"/>
<path fill="none" stroke="#216E80" stroke-width="0.897" stroke-miterlimit="10" d="M19.771,4.931V8.34
	c0,0.391,0.315,0.706,0.705,0.706s0.706-0.315,0.706-0.706V5.378C20.68,5.271,20.212,5.117,19.771,4.931z"/>
<polygon fill="#216E80" points="4.296,18.534 39.19,18.534 37.644,23.319 5.088,23.319 "/>
<polygon fill="none" stroke="#216E80" stroke-width="1.414" stroke-miterlimit="10" points="4.296,18.534 39.19,18.534
	37.644,23.319 5.088,23.319 "/>
<path fill="#216E80" d="M24.295,5.505v3.5c0,0.391,0.315,0.705,0.706,0.705c0.39,0,0.705-0.314,0.705-0.705V5.216
	C25.262,5.349,24.793,5.446,24.295,5.505"/>
<path fill="none" stroke="#216E80" stroke-width="0.897" stroke-miterlimit="10" d="M24.295,5.505v3.5
	c0,0.391,0.315,0.705,0.706,0.705c0.39,0,0.705-0.314,0.705-0.705V5.216C25.262,5.349,24.793,5.446,24.295,5.505z"/>
<path fill="#216E80" d="M35.579,4.771v5.165c0,0.391,0.315,0.705,0.706,0.705c0.39,0,0.706-0.314,0.706-0.705V5.005
	C36.486,4.975,36.016,4.896,35.579,4.771"/>
<path fill="none" stroke="#216E80" stroke-width="0.897" stroke-miterlimit="10" d="M35.579,4.771v5.165
	c0,0.391,0.315,0.705,0.706,0.705c0.39,0,0.706-0.314,0.706-0.705V5.005C36.486,4.975,36.016,4.896,35.579,4.771z"/>
<path fill="#216E80" d="M5.084,26.855H1.676c-0.391,0-0.706,0.316-0.706,0.705c0,0.391,0.315,0.708,0.706,0.708h2.962
	C4.745,27.766,4.899,27.298,5.084,26.855"/>
<path fill="none" stroke="#216E80" stroke-width="0.897" stroke-miterlimit="10" d="M5.084,26.855H1.676
	c-0.391,0-0.706,0.316-0.706,0.705c0,0.391,0.315,0.708,0.706,0.708h2.962C4.745,27.766,4.899,27.298,5.084,26.855z"/>
<path fill="#edf886" d="M74.422,1.538c0.989,0,1.836,0.318,2.542,0.953c0.707,0.637,1.06,1.402,1.06,2.297v13.7
	c0,0.942-0.353,1.731-1.06,2.365c-0.706,0.637-1.553,0.954-2.542,0.954H60.65v10.594h-7.345V1.538H74.422z M70.75,8.106H60.651
	v7.133H70.75V8.106z"/>
<rect x="85.299" y="1.538" fill="#edf886" width="7.274" height="30.863"/>
<path fill="#edf886" d="M121.529,32.401h-17.656c-0.989,0-1.837-0.305-2.543-0.918c-0.706-0.61-1.059-1.388-1.059-2.33V4.788
	c0-0.895,0.353-1.66,1.059-2.297c0.706-0.635,1.554-0.953,2.543-0.953h17.656c0.989,0,1.836,0.318,2.543,0.953
	c0.706,0.637,1.059,1.402,1.059,2.297v24.365c0,0.942-0.353,1.72-1.059,2.33C123.365,32.097,122.518,32.401,121.529,32.401
	 M107.545,25.834h10.312V8.106h-10.312V25.834z"/>
<polygon fill="#edf886" points="159.103,32.401 152.746,32.401 138.903,11.497 138.903,32.401 131.699,32.401 131.699,1.538
	142.082,1.538 151.828,16.369 151.828,1.538 159.103,1.538 "/>
<polygon fill="#edf886" points="171.886,8.177 171.886,13.828 180.715,13.828 180.715,20.325 171.886,20.325 171.886,25.906
	187.918,25.906 187.918,32.401 164.753,32.401 164.753,1.538 187.918,1.538 187.918,8.177 "/>
<polygon fill="#edf886" points="200.631,8.177 200.631,13.828 209.459,13.828 209.459,20.325 200.631,20.325 200.631,25.906
	216.662,25.906 216.662,32.401 193.498,32.401 193.498,1.538 216.662,1.538 216.662,8.177 "/>
<path fill="#edf886" d="M241.876,32.401l-7.063-10.594h-5.226v10.594h-7.274V1.538h20.977c1.034,0,1.906,0.318,2.611,0.953
	c0.707,0.637,1.061,1.402,1.061,2.297v13.7c0,0.942-0.354,1.731-1.061,2.365c-0.705,0.637-1.577,0.954-2.611,0.954l7.062,10.594
	H241.876z M229.587,15.239h10.101V8.106h-10.101V15.239z"/>
<path fill="none" stroke="#FFFFFF" stroke-width="1.414" stroke-miterlimit="10" d="M6.007,22.133v6.384h3.09
	c0.295-1.915,1.881-3.084,3.941-3.084c2.06,0,3.806,1.493,3.942,3.084h10.902c0.317-1.553,1.822-3.223,3.874-3.223
	c2.051,0,3.879,1.67,4.196,3.223h2.611v-6.384H6.007z"/>
<circle fill="none" stroke="#FFFFFF" stroke-width="1.597" stroke-miterlimit="10" cx="13.05" cy="29.415" r="4.092"/>
<path fill-rule="evenodd" clip-rule="evenodd" fill="#FFFFFF" d="M11.353,29.311c0.043-0.923,0.852-1.647,1.779-1.598
	c0.925,0.05,1.655,0.85,1.617,1.775c-0.036,0.917-0.838,1.661-1.76,1.632C12.028,31.085,11.308,30.289,11.353,29.311"/>
<circle fill="none" stroke="#FFFFFF" stroke-width="1.597" stroke-miterlimit="10" cx="31.818" cy="29.459" r="4.092"/>
<path fill-rule="evenodd" clip-rule="evenodd" fill="#FFFFFF" d="M30.12,29.354c0.043-0.923,0.851-1.646,1.779-1.598
	c0.925,0.051,1.655,0.85,1.617,1.776c-0.036,0.916-0.838,1.66-1.76,1.631C30.795,31.128,30.075,30.332,30.12,29.354"/>
<path fill="none" stroke="#FFFFFF" stroke-width="1.414" stroke-miterlimit="10" d="M5.047,17.439L2.142,3.675
	c0,0-1.102-2.798,2.158-0.935c0,0,6.095,2.507,10.807-1.272c0,0,9.519,5.664,17.88,0c0,0,5.569,4.026,9.873,2.207
	c0,0,2.232-1.282,1.368,1.393l-4.236,12.506L5.047,17.439z"/>
<path fill="#FFFFFF" d="M10.114,3.487v5.164c0,0.391,0.314,0.705,0.705,0.705c0.39,0,0.705-0.314,0.705-0.705V3.72
	C11.021,3.69,10.55,3.611,10.114,3.487"/>
<path fill="#FFFFFF" d="M20.572,3.97v3.41c0,0.391,0.316,0.705,0.706,0.705c0.389,0,0.705-0.314,0.705-0.705V4.417
	C21.481,4.31,21.013,4.155,20.572,3.97"/>
<polygon fill="none" stroke="#FFFFFF" stroke-width="1.414" stroke-miterlimit="10" points="5.097,17.573 39.992,17.573
	38.445,22.358 5.889,22.358 "/>
<path fill="#FFFFFF" d="M25.096,4.544v3.5c0,0.391,0.316,0.705,0.706,0.705s0.706-0.314,0.706-0.705V4.255
	C26.062,4.388,25.594,4.485,25.096,4.544"/>
<path fill="#FFFFFF" d="M36.38,3.811v5.165c0,0.391,0.315,0.705,0.706,0.705c0.389,0,0.706-0.314,0.706-0.705V4.044
	C37.288,4.015,36.817,3.935,36.38,3.811"/>
<path fill="#FFFFFF" d="M5.885,25.895H2.477c-0.391,0-0.706,0.316-0.706,0.705c0,0.391,0.315,0.708,0.706,0.708h2.962
	C5.546,26.805,5.7,26.337,5.885,25.895"/>
</svg>
